<svg xmlns="http://www.w3.org/2000/svg" viewBox="0 0 841.9 595.3">
    <g fill="#61DAFB">
        <path d="M666.3 296.5c0-32.5-40.7-63.3-103.1-82.4 14.4-63.6 8-114.2-20.2-130.4-6.5-3.8-14.1-5.6-22.4-5.6v22.3c4.6 0 8.3.9 11.4 2.6 13.6 7.8 19.5 37.5 14.9 75.7-1.1 9.4-2.9 19.3-5.1 29.4-19.2-27.9-50.6-51.7-87.4-66.1-36.9-14.3-79.1-21.4-122.7-21.4s-85.7 7.1-122.7 21.4c-36.9 14.3-68.2 38.2-87.4 66.1-2.2-10.1-4-20-5.1-29.4-4.6-38.2 1.3-67.9 14.9-75.7 3.1-1.7 6.8-2.6 11.4-2.6V78.1c-8.4 0-16 1.8-22.4 5.6-28.1 16.2-34.6 66.8-20.2 130.4-62.3 19.1-103.1 49.9-103.1 82.4s40.7 63.3 103.1 82.4c-14.4 63.6-8 114.2 20.2 130.4 6.5 3.8 14.1 5.6 22.4 5.6v-22.3c-4.6 0-8.3-.9-11.4-2.6-13.6-7.8-19.5-37.5-14.9-75.7 1.1-9.4 2.9-19.3 5.1-29.4 19.2 27.9 50.6 51.7 87.4 66.1 36.9 14.3 79.1 21.4 122.7 21.4s85.7-7.1 122.7-21.4c36.9-14.3 68.2-38.2 87.4-66.1 2.2 10.1 4 20 5.1 29.4 4.6 38.2-1.3 67.9-14.9 75.7-3.1-1.7-6.8-2.6-11.4-2.6V437c8.4 0 16-1.8 22.4-5.6 28.1-16.2 34.6-66.8 20.2-130.4 62.3-19.1 103.1-49.9 103.1-82.4zM420.9 430c-74.6 0-139.9-24.5-181.6-63.8-1.2-1.1-2.3-2.3-3.4-3.4-14.5-15.7-27.5-33.4-38.6-52.9-2.7-4.8-5.3-9.7-7.9-14.7-1.8-3.4-3.5-6.8-5.2-10.2-.2-.5-.5-1-.7-1.5-.7-1.4-1.3-2.8-2-4.3-.5-1.1-1-2.2-1.5-3.3-.8-1.9-1.6-3.8-2.3-5.7-.4-1-.8-2-1.2-3-.6-1.6-1.2-3.1-1.7-4.7-.3-.9-.7-1.9-1-2.8-.1-.3-.2-.6-.4-.9-.5-1.4-1-2.9-1.5-4.3-.2-.7-.5-1.3-.7-2-.5-1.5-1-2.9-1.4-4.4-.2-.6-.4-1.2-.6-1.9-.4-1.3-.8-2.6-1.2-3.9-.2-.5-.3-.9-.5-1.4-.5-1.6-1-3.2-1.4-4.8-.1-.4-.3-.8-.4-1.2-.4-1.3-.7-2.6-.1-3.9-.1-.3-.2-.5-.3-.8-.5-1.5-.9-3-1.3-4.5-.1-.3-.2-.6-.3-.9-.4-1.2-.8-2.5-1.1-3.7-.1-.3-.2-.6-.3-.9-.4-1.2-.8-2.4-1.1-3.6-.1-.3-.2-.6-.3-.9-.4-1.2-.7-2.4-.1-3.6-.1-.3-.2-.6-.2-.8-.4-1.1-.7-2.3-.1-3.4-.1-.3-.2-.5-.2-.8-.4-1.1-.7-2.2-.9-3.3-.1-.3-.1-.5-.2-.8-.4-1.1-.7-2.2-.9-3.3-.1-.2-.1-.5-.2-.7-.4-1-.7-2.1-.9-3.2-.1-.3-.1-.5-.2-.7-.4-1-.6-2.1-.8-3.1-.1-.3-.1-.5-.2-.7-.4-1-.6-2-.8-3.1-.1-.2-.1-.5-.2-.7-.3-.9-.6-1.9-.8-2.8-.1-.3-.1-.5-.2-.7-.4-.9-.6-1.9-.8-2.8-.1-.2-.1-.5-.2-.7-.3-.9-.6-1.8-.8-2.7-.1-.3-.1-.5-.2-.7-.3-.9-.5-1.8-.7-2.7-.1-.2-.1-.4-.1-.6-.3-.8-.5-1.7-.7-2.6-.1-.2-.1-.4-.1-.6-.3-.8-.5-1.7-.7-2.5-.1-.2-.1-.4-.1-.6-.3-.8-.5-1.6-.6-2.4-.1-.2-.1-.4-.1-.6-.3-.8-.5-1.6-.6-2.4-.1-.2-.1-.4-.1-.6-.2-.7-.4-1.5-.5-2.3-.1-.2-.1-.4-.1-.6-.2-.7-.4-1.5-.5-2.2-.1-.2-.1-.4-.1-.6-.2-.7-.4-1.4-.5-2.2-.1-.2-.1-.3-.1-.5-.2-.7-.3-1.4-.4-2.1-.1-.2-.1-.3-.1-.5-.2-.6-.3-1.3-.4-2-.1-.2-.1-.3-.1-.5-.2-.6-.3-1.2-.4-1.9-.1-.2-.1-.3-.1-.5-.2-.6-.3-1.2-.4-1.8-.1-.2-.1-.3-.1-.5-.2-.6-.3-1.2-.3-1.8-.1-.2-.1-.3-.1-.4-.2-.5-.3-1.1-.3-1.7-.1-.2-.1-.3-.1-.4-.2-.5-.3-1.1-.3-1.6-.1-.2-.1-.3-.1-.4-.2-.5-.2-1-.3-1.5-.1-.2-.1-.3-.1-.4-.2-.5-.2-1-.3-1.5-.1-.2-.1-.3-.1-.4-.2-.4-.2-.9-.3-1.4-.1-.2-.1-.3-.1-.4-.2-.4-.2-.9-.3-1.3-.1-.2-.1-.3-.1-.4-.2-.4-.2-.8-.2-1.2-.1-.1-.1-.3-.1-.4-.2-.4-.2-.8-.2-1.2-.1-.1-.1-.3-.1-.4-.2-.4-.2-.8-.2-1.2-.1-.1-.1-.2-.1-.3-.2-.3-.2-.7-.2-1.1V179c0-.1 0-.2-.1-.3v-2.2h.1c.1.1.2.2.2.3.2.4.2.8.2 1.2s0 .8-.1 1.2c0 .1-.1.3-.1.4-.2.4-.2.8-.2 1.2s0 .8-.1 1.2c0 .1-.1.3-.1.4-.2.4-.2.8-.2 1.2s0 .8-.1 1.2c0 .1-.1.3-.1.4-.2.4-.2.8-.2 1.2s0 .8-.1 1.2c0 .1-.1.3-.1.4-.2.4-.2.8-.2 1.2s0 .8-.1 1.2c0 .1-.1.3-.1.4-.2.5-.2.9-.3 1.4s-.1.9-.1 1.3c0 .1-.1.3-.1.4-.2.4-.2.9-.3 1.3s-.1.9-.1 1.3c0 .1-.1.3-.1.4-.2.4-.2.9-.3 1.3s-.1.9-.1 1.3c0 .1-.1.3-.1.4-.2.4-.2.9-.3 1.3s-.1.9-.1 1.3c0 .1-.1.2-.1.4-.2.4-.2.8-.3 1.2s-.1.9-.1 1.3c0 .1-.1.2-.1.4-.2.4-.2.8-.3 1.2s-.1.8-.1 1.2c0 .1-.1.2-.1.3-.2.4-.2.8-.3 1.2s-.1.8-.1 1.2c0 .1-.1.2-.1.3-.2.4-.2.8-.2 1.2s-.1.8-.1 1.2c0 .1-.1.2-.1.3-.2.4-.2.8-.2 1.2s-.1.8-.1 1.2c0 .1-.1.2-.1.3-.2.4-.2.8-.2 1.2s-.1.8-.1 1.2c0 .1 0 .2-.1.3-.2.4-.2.8-.2 1.2s-.1.8-.1 1.2c0 .1 0 .2-.1.3-.2.4-.2.8-.2 1.2s-.1.8-.1 1.2c0 .1 0 .2-.1.3-.2.4-.2.8-.2 1.2s0 .8-.1 1.2c0 .1 0 .2-.1.3-.2.4-.2.8-.2 1.2l-.1 1.2c0 .1 0 .2-.1.3c-.2.4-.2.8-.2 1.2l-.1 1.2c0 .1 0 .2-.1.3-.2.4-.2.8-.2 1.2l-.1 1.2c0 .1 0 .2-.1.3-.2.4-.2.8-.2 1.2l-.1 1.2c0 .1 0 .2-.1.3-.2.4-.2.8-.2 1.2l-.1 1.2c0 .1-.1.2-.1.3-.2.4-.2.8-.2 1.2l-.1 1.2c0 .1-.1.2-.1.3-.2.4-.2.8-.2 1.2l-.1 1.2c0 .1-.1.2-.1.3-.2.4-.2.8-.2 1.2C239.4 368 239.3 368.1 239.3 368.2c-.2.4-.2.8-.2 1.2v.1c0 .4.1.8.1 1.2.2.7.4 1.5.5 2.2.1.2.1.4.1.6.2.7.4 1.5.5 2.2.1.2.1.4.1.6.2.7.4 1.4.5 2.2.1.2.1.4.1.6.2.7.3 1.4.4 2.1.1.2.1.3.1.5.2.6.3 1.3.4 2 .1.2.1.3.1.5.2.6.3 1.2.4 1.9.1.2.1.3.1.5.2.6.3 1.2.4 1.8.1.2.1.3.1.5.2.6.3 1.2.3 1.8.1.2.1.3.1.4.2.5.3 1.1.3 1.7.1.2.1.3.1.4.2.5.3 1.1.3 1.6.1.2.1.3.1.4.2.5.2 1 .3 1.5.1.2.1.3.1.4.2.5.2 1 .3 1.5.1.2.1.3.1.4.2.4.2.9.3 1.4.1.2.1.3.1.4.2.4.2.9.3 1.3.1.2.1.3.1.4.2.4.2.8.2 1.2.1.1.1.3.1.4.2.4.2.8.2 1.2.1.1.1.3.1.4.2.4.2.8.2 1.2.1.1.1.2.1.3.1.4.2.3.2.7.2 1.1h.1c.1.1.2.2.2.3.2.3.2.7.2 1.1v2.2c0 .1-.1.2-.1.3-.4 1.1-.7 2.3-.9 3.4-.1.3-.1.5-.2.8-.4 1.1-.7 2.2-.9 3.3-.1.3-.1.5-.2.8-.4 1.1-.7 2.2-.9 3.3-.1.2-.1.5-.2.7-.4 1-.7 2.1-.9 3.2-.1.3-.1.5-.2.7-.4 1-.6 2.1-.8 3.1-.1.3-.1.5-.2.7-.4 1-.6 2-.8 3.1-.1.2-.1.5-.2.7-.3-.9-.6-1.9-.8-2.8-.1.3-.1.5-.2.7-.4-.9-.6-1.9-.8-2.8-.1.2-.1.5-.2.7-.3-.9-.6-1.8-.8-2.7-.1.3-.1.5-.2.7-.3-.9-.5-1.8-.7-2.7-.1.2-.1.4-.1.6-.3-.8-.5-1.7-.7-2.6-.1.2-.1.4-.1.6-.3-.8-.5-1.7-.7-2.5-.1.2-.1.4-.1.6-.3-.8-.5-1.6-.6-2.4-.1.2-.1.4-.1.6-.3-.8-.5-1.6-.6-2.4-.1.2-.1.4-.1.6-.2-.7-.4-1.5-.5-2.3-.1.2-.1.4-.1.6-.2-.7-.4-1.5-.5-2.2-.1.2-.1.4-.1.6-.2-.7-.4-1.4-.5-2.2-.1-.2-.1-.3-.1-.5-.2-.7-.3-1.4-.4-2.1-.1-.2-.1-.3-.1-.5-.2-.6-.3-1.3-.4-2-.1-.2-.1-.3-.1-.5-.2-.6-.3-1.2-.4-1.9-.1-.2-.1-.3-.1-.5-.2-.6-.3-1.2-.4-1.8-.1-.2-.1-.3-.1-.5-.2-.6-.3-1.2-.3-1.8-.1-.2-.1-.3-.1-.4-.2-.5-.3-1.1-.3-1.7-.1-.2-.1-.3-.1-.4-.2-.5-.3-1.1-.3-1.6-.1-.2-.1-.3-.1-.4-.2-.5-.2-1-.3-1.5-.1-.2-.1-.3-.1-.4-.2-.5-.2-1-.3-1.5-.1-.2-.1-.3-.1-.4-.2-.4-.2-.9-.3-1.4-.1-.2-.1-.3-.1-.4-.2-.4-.2-.9-.3-1.3-.1-.2-.1-.3-.1-.4-.2-.4-.2-.8-.2-1.2-.1-.1-.1-.3-.1-.4-.2-.4-.2-.8-.2-1.2-.1-.1-.1-.3-.1-.4-.2-.4-.2-.8-.2-1.2-.1-.1-.1-.2-.1-.3-.2-.3-.2-.7-.2-1.1V217c0-.1 0-.2.1-.3v2.2c-.1-.1-.2-.2-.2-.3-.2-.4-.2-.8-.2-1.2s0-.8.1-1.2c0-.1.1-.3.1-.4.2-.4.2-.8.2-1.2s0-.8.1-1.2c0-.1.1-.3.1-.4.2-.4.2-.8.2-1.2s0-.8.1-1.2c0-.1.1-.3.1-.4.2-.4.2-.8.2-1.2s0-.8.1-1.2c0-.1.1-.3.1-.4.2-.4.2-.8.2-1.2s0-.8.1-1.2c0-.1.1-.3.1-.4.2-.5.2-.9.3-1.4s.1-.9.1-1.3c0-.1.1-.3.1-.4.2-.4.2-.9.3-1.3s.1-.9.1-1.3c0-.1.1-.3.1-.4.2-.4.2-.9.3-1.3s.1-.9.1-1.3c0-.1.1-.3.1-.4.2-.4.2-.9.3-1.3s.1-.9.1-1.3c0-.1.1-.2.1-.4.2-.4.2-.8.3-1.2s.1-.9.1-1.3c0-.1.1-.2.1-.4.2-.4.2-.8.3-1.2s.1-.8.1-1.2c0-.1.1-.2.1-.3.2-.4.2-.8.3-1.2s.1-.8.1-1.2c0-.1.1-.2.1-.3.2-.4.2-.8.2-1.2s.1-.8.1-1.2c0-.1.1-.2.1-.3.2-.4.2-.8.2-1.2s.1-.8.1-1.2c0-.1.1-.2.1-.3.2-.4.2-.8.2-1.2s.1-.8.1-1.2c0-.1.0-.2.1-.3.2-.4.2-.8.2-1.2s.1-.8.1-1.2c0-.1.0-.2.1-.3.2-.4.2-.8.2-1.2s.1-.8.1-1.2c0-.1.0-.2.1-.3.2-.4.2-.8.2-1.2l.1-1.2c0-.1.0-.2.1-.3.2-.4.2-.8.2-1.2l.1-1.2c0-.1.0-.2.1-.3.2-.4.2-.8.2-1.2l.1-1.2c0-.1.0-.2.1-.3.2-.4.2-.8.2-1.2l.1-1.2c0-.1.1-.2.1-.3.2-.4.2-.8.2-1.2l.1-1.2c0-.1.1-.2.1-.3.2-.4.2-.8.2-1.2l.1-1.2c0-.1.1-.2.1-.3C599.7 179.1 599.8 179 599.8 178.9c.2-.4.2-.8.2-1.2v-.1c0-.4-.1-.8-.1-1.2-.2-.7-.4-1.5-.5-2.2-.1-.2-.1-.4-.1-.6-.2-.7-.4-1.5-.5-2.2-.1-.2-.1-.4-.1-.6-.2-.7-.4-1.4-.5-2.2-.1-.2-.1-.4-.1-.6-.2-.7-.3-1.4-.4-2.1-.1-.2-.1-.3-.1-.5-.2-.6-.3-1.3-.4-2-.1-.2-.1-.3-.1-.5-.2-.6-.3-1.2-.4-1.9-.1-.2-.1-.3-.1-.5-.2-.6-.3-1.2-.4-1.8-.1-.2-.1-.3-.1-.5-.2-.6-.3-1.2-.3-1.8-.1-.2-.1-.3-.1-.4-.2-.5-.3-1.1-.3-1.7-.1-.2-.1-.3-.1-.4-.2-.5-.3-1.1-.3-1.6-.1-.2-.1-.3-.1-.4-.2-.5-.2-1-.3-1.5-.1-.2-.1-.3-.1-.4-.2-.5-.2-1-.3-1.5-.1-.2-.1-.3-.1-.4-.2-.4-.2-.9-.3-1.4-.1-.2-.1-.3-.1-.4-.2-.4-.2-.9-.3-1.3-.1-.2-.1-.3-.1-.4-.2-.4-.2-.8-.2-1.2-.1-.1-.1-.3-.1-.4-.2-.4-.2-.8-.2-1.2-.1-.1-.1-.3-.1-.4-.2-.4-.2-.8-.2-1.2-.1-.1-.1-.2-.1-.3-.2-.3-.2-.7-.2-1.1V121c0-.1.0-.2-.1-.3v-2.2h.1c.1.1.2.2.2.3.2.4.2.8.2 1.2s0 .8-.1 1.2c0 .1-.1.3-.1.4-.2.4-.2.8-.2 1.2s0 .8-.1 1.2c0 .1-.1.3-.1.4-.2.4-.2.8-.2 1.2s0 .8-.1 1.2c0 .1-.1.3-.1.4-.2.4-.2.8-.2 1.2s0 .8-.1 1.2c0 .1-.1.3-.1.4-.2.4-.2.8-.2 1.2s0 .8-.1 1.2c0 .1-.1.3-.1.4-.2.5-.2.9-.3 1.4s-.1.9-.1 1.3c0 .1-.1.3-.1.4-.2.4-.2.9-.3 1.3s-.1.9-.1 1.3c0 .1-.1.3-.1.4-.2.4-.2.9-.3 1.3s-.1.9-.1 1.3c0 .1-.1.3-.1.4-.2.4-.2.9-.3 1.3s-.1.9-.1 1.3c0 .1-.1.2-.1.4-.2.4-.2.8-.3 1.2s-.1.9-.1 1.3c0 .1-.1.2-.1.4-.2.4-.2.8-.3 1.2s-.1.8-.1 1.2c0 .1-.1.2-.1.3-.2.4-.2.8-.3 1.2s-.1.8-.1 1.2c0 .1-.1.2-.1.3-.2.4-.2.8-.2 1.2s-.1.8-.1 1.2c0 .1-.1.2-.1.3-.2.4-.2.8-.2 1.2s-.1.8-.1 1.2c0 .1-.1.2-.1.3-.2.4-.2.8-.2 1.2s-.1.8-.1 1.2c0 .1 0 .2-.1.3-.2.4-.2.8-.2 1.2s-.1.8-.1 1.2c0 .1 0 .2-.1.3-.2.4-.2.8-.2 1.2s-.1.8-.1 1.2c0 .1 0 .2-.1.3-.2.4-.2.8-.2 1.2l-.1 1.2c0 .1 0 .2-.1.3c-.2.4-.2.8-.2 1.2l-.1 1.2c0 .1 0 .2-.1.3c-.2.4-.2.8-.2 1.2l-.1 1.2c0 .1 0 .2-.1.3c-.2.4-.2.8-.2 1.2l-.1 1.2c0 .1 0 .2-.1.3c-.2.4-.2.8-.2 1.2l-.1 1.2c0 .1-.1.2-.1.3-.2.4-.2.8-.2 1.2l-.1 1.2c0 .1-.1.2-.1.3-.2.4-.2.8-.2 1.2.1.6.1 1.1.2 1.7.1.2.1.5.2.7.2.6.3 1.1.4 1.7.1.2.1.5.2.7.2.6.3 1.1.4 1.7.1.2.1.5.2.7.2.6.4 1.1.5 1.7.1.2.1.5.2.7.2.6.4 1.1.5 1.6.2.2.2.5.3.7.2.6.4 1.1.5 1.6.2.2.2.5.3.7.2.5.4 1.1.6 1.6.2.2.2.5.3.7.2.5.4 1.1.6 1.6.2.2.2.5.3.7.3.5.5 1 .7 1.5.2.2.3.5.4.7.3.5.5 1 .7 1.5.2.2.3.5.4.7.3.5.5.9.7 1.4.2.2.3.5.4.7.3.4.5.9.7 1.4.2.2.3.4.4.7.3.4.5.9.7 1.3.2.2.3.4.4.7.3.4.6.8.8 1.3.2.2.3.4.4.6.3.4.6.8.8 1.2.2.2.3.4.4.6C406.3 232.4 406.3 232.4 406.3 232.4c14.5 15.7 27.5 33.4 38.6 52.9 2.7 4.8 5.3 9.7 7.9 14.7 1.8 3.4 3.5 6.8 5.2 10.2.2.5.5 1 .7 1.5.7 1.4 1.3 2.8 2 4.3.5 1.1 1 2.2 1.5 3.3.8 1.9 1.6 3.8 2.3 5.7.4 1 .8 2 1.2 3 .6 1.6 1.2 3.1 1.7 4.7.3.9.7 1.9 1 2.8v.9c.5 1.4 1 2.9 1.5 4.3.2.7.5 1.3.7 2 .5 1.5 1 2.9 1.4 4.4.2.6.4 1.2.6 1.9.4 1.3.8 2.6 1.2 3.9.2.5.3.9.5 1.4.5 1.6 1 3.2 1.4 4.8.1.4.3.8.4 1.2.4 1.3.7 2.6.1 3.9.1.3.2.5.3.8.5 1.5.9 3 1.3 4.5.1.3.2.6.3.9.4 1.2.8 2.5 1.1 3.7.1.3.2.6.3.9.4 1.2.8 2.4 1.1 3.6.1.3.2.6.3.9.4 1.2.7 2.4.1 3.6.1.3.2.6.2.8.4 1.1.7 2.3.1 3.4.1.3.2.5.2.8.4 1.1.7 2.2.9 3.3.1.3.1.5.2.8.4 1.1.7 2.2.9 3.3C421.3 358.9 421.3 358.9 421.3 358.9c74.6 0 139.9-24.5 181.6-63.8 1.2-1.1 2.3-2.3 3.4-3.4 14.5-15.7 27.5-33.4 38.6-52.9 2.7-4.8 5.3-9.7 7.9-14.7 1.8-3.4 3.5-6.8 5.2-10.2.2-.5.5-1 .7-1.5.7-1.4 1.3-2.8 2-4.3.5-1.1 1-2.2 1.5-3.3.8-1.9 1.6-3.8 2.3-5.7.4-1 .8-2 1.2-3 .6-1.6 1.2-3.1 1.7-4.7.3-.9.7-1.9 1-2.8.1-.3.2-.6.4-.9.5-1.4 1-2.9 1.5-4.3.2-.7.5-1.3.7-2 .5-1.5 1-2.9 1.4-4.4.2-.6.4-1.2.6-1.9.4-1.3.8-2.6 1.2-3.9.2-.5.3-.9.5-1.4.5-1.6 1-3.2 1.4-4.8.1-.4.3-.8.4-1.2.4-1.3.7-2.6.1-3.9.1-.3.2-.5.3-.8.5-1.5.9-3 1.3-4.5.1-.3.2-.6.3-.9.4-1.2.8-2.5 1.1-3.7.1-.3.2-.6.3-.9.4-1.2.8-2.4 1.1-3.6.1-.3.2-.6.3-.9.4-1.2.7-2.4.1-3.6h-.1c-.1-.3-.2-.5-.2-.8-.4-1.1-.7-2.3-.1-3.4-.1-.3-.2-.5-.2-.8-.4-1.1-.7-2.2-.9-3.3-.1-.3-.1-.5-.2-.8-.4-1.1-.7-2.2-.9-3.3-.1-.2-.1-.5-.2-.7-.4-1-.7-2.1-.9-3.2-.1-.3-.1-.5-.2-.7-.4-1-.6-2.1-.8-3.1-.1-.3-.1-.5-.2-.7-.4-1-.6-2-.8-3.1-.1-.2-.1-.5-.2-.7-.3-.9-.6-1.9-.8-2.8-.1-.3-.1-.5-.2-.7-.4-.9-.6-1.9-.8-2.8-.1-.2-.1-.5-.2-.7-.3-.9-.6-1.8-.8-2.7-.1-.3-.1-.5-.2-.7-.3-.9-.5-1.8-.7-2.7-.1-.2-.1-.4-.1-.6-.3-.8-.5-1.7-.7-2.6-.1-.2-.1-.4-.1-.6-.3-.8-.5-1.7-.7-2.5-.1-.2-.1-.4-.1-.6-.3-.8-.5-1.6-.6-2.4-.1-.2-.1-.4-.1-.6-.3-.8-.5-1.6-.6-2.4-.1-.2-.1-.4-.1-.6-.2-.7-.4-1.5-.5-2.3-.1-.2-.1-.4-.1-.6-.2-.7-.4-1.5-.5-2.2-.1-.2-.1-.4-.1-.6-.2-.7-.4-1.4-.5-2.2-.1-.2-.1-.3-.1-.5-.2-.7-.3-1.4-.4-2.1-.1-.2-.1-.3-.1-.5-.2-.6-.3-1.3-.4-2-.1-.2-.1-.3-.1-.5-.2-.6-.3-1.2-.4-1.9-.1-.2-.1-.3-.1-.5-.2-.6-.3-1.2-.4-1.8-.1-.2-.1-.3-.1-.5-.2-.6-.3-1.2-.3-1.8-.1-.2-.1-.3-.1-.4-.2-.5-.3-1.1-.3-1.7-.1-.2-.1-.3-.1-.4-.2-.5-.3-1.1-.3-1.6-.1-.2-.1-.3-.1-.4-.2-.5-.2-1-.3-1.5-.1-.2-.1-.3-.1-.4-.2-.5-.2-1-.3-1.5-.1-.2-.1-.3-.1-.4-.2-.4-.2-.9-.3-1.4-.1-.2-.1-.3-.1-.4-.2-.4-.2-.9-.3-1.3-.1-.2-.1-.3-.1-.4-.2-.4-.2-.8-.2-1.2-.1-.1-.1-.3-.1-.4-.2-.4-.2-.8-.2-1.2-.1-.1-.1-.3-.1-.4-.2-.4-.2-.8-.2-1.2-.1-.1-.1-.2-.1-.3-.2-.3-.2-.7-.2-1.1V297c0-.1 0-.2.1-.3v-2.2c-.1.1-.2.2-.2.3-.2.4-.2.8-.2 1.2s0 .8.1 1.2c0 .1.1.3.1.4.2.4.2.8.2 1.2s0 .8.1 1.2c0 .1.1.3.1.4.2.4.2.8.2 1.2s0 .8.1 1.2c0 .1.1.3.1.4.2.4.2.8.2 1.2s0 .8.1 1.2c0 .1.1.3.1.4.2.4.2.8.2 1.2s0 .8.1 1.2c0 .1.1.3.1.4.2.5.2.9.3 1.4s.1.9.1 1.3c0 .1.1.3.1.4.2.4.2.9.3 1.3s.1.9.1 1.3c0 .1.1.3.1.4.2.4.2.9.3 1.3s.1.9.1 1.3c0 .1.1.3.1.4.2.4.2.9.3 1.3s.1.9.1 1.3c0 .1.1.2.1.4.2.4.2.8.3 1.2s.1.9.1 1.3c0 .1.1.2.1.4.2.4.2.8.3 1.2s.1.8.1 1.2c0 .1.1.2.1.3.2.4.2.8.3 1.2s.1.8.1 1.2c0 .1.1.2.1.3.2.4.2.8.2 1.2s.1.8.1 1.2c0 .1.1.2.1.3.2.4.2.8.2 1.2s.1.8.1 1.2c0 .1.1.2.1.3.2.4.2.8.2 1.2s.1.8.1 1.2c0 .1 0 .2.1.3.2.4.2.8.2 1.2s.1.8.1 1.2c0 .1 0 .2.1.3.2.4.2.8.2 1.2s.1.8.1 1.2c0 .1 0 .2.1.3.2.4.2.8.2 1.2l.1 1.2c0 .1 0 .2.1.3c1.2 23.6 1.9 45.3 1.9 64.9v1.1c0 19.6-1.1 38.7-3.8 53.4-7.2 39.1-20.2 65.8-36.6 74.2-6.1 3.1-12.8 4.6-20.2 4.6-11.9.1-22.8-2.6-32.1-8.5-24.2-15.4-32.4-51.3-22.2-100.7 5.2-24.9 13.3-50.1 23.3-74.8.9-2.3 1.8-4.5 2.7-6.8 24.4 21.2 53.7 37.2 86.3 46.4 32.7 9.3 67.5 14 103.1 14s70.4-4.7 103.1-14c32.7-9.3 61.9-25.2 86.3-46.4.9 2.3 1.8 4.5 2.7 6.8 10.1 24.7 18.1 49.9 23.3 74.8 10.1 49.3 1.9 85.3-22.2 100.7-9.3 5.9-20.2 8.5-32.1 8.5-7.4 0-14.1-1.5-20.2-4.6-16.3-8.4-29.4-35.1-36.6-74.2-2.8-14.7-3.8-33.8-3.8-53.4v-1.1c0-19.6.7-41.3 1.9-64.9.1-.6.1-1.1.2-1.7.1-.2.1-.5.2-.7.2-.6.3-1.1.4-1.7.1-.2.1-.5.2-.7.2-.6.3-1.1.4-1.7.1-.2.1-.5.2-.7.2-.6.4-1.1.5-1.7.1-.2.1-.5.2-.7.2-.6.4-1.1.5-1.6.2-.2.2-.5.3-.7.2-.5.4-1.1.6-1.6.2-.2.2-.5.3-.7.2-.5.4-1.1.6-1.6.2-.2.2-.5.3-.7.3-.5.5-1 .7-1.5.2-.2.3-.5.4-.7.3-.5.5-1 .7-1.5.2-.2.3-.5.4-.7.3-.5.5-.9.7-1.4.2-.2.3-.4.4-.7.3-.4.5-.9.7-1.4.2-.2.3-.4.4-.6.3-.4.6-.8.8-1.3.2-.2.3-.4.4-.6.3-.4.6-.8.8-1.2.2-.2.3-.4.4-.6C604.9 301.4 604.9 301.4 604.9 301.4z"/>
        <ellipse cx="420.9" cy="296.5" rx="45.7" ry="103.9"/>
    </g>
</svg>
